<?xml version="1.0" encoding="utf-8"?>
<!-- Generator: Adobe Illustrator 17.0.0, SVG Export Plug-In . SVG Version: 6.00 Build 0)  -->
<!DOCTYPE svg PUBLIC "-//W3C//DTD SVG 1.1//EN" "http://www.w3.org/Graphics/SVG/1.1/DTD/svg11.dtd">
<svg version="1.1" id="Layer_1" xmlns="http://www.w3.org/2000/svg" xmlns:xlink="http://www.w3.org/1999/xlink" x="0px" y="0px"
	 width="50px" height="50px" viewBox="0 0 50 50" enable-background="new 0 0 50 50" xml:space="preserve">
<path fill="#00AEEF" d="M0,25c0,13.807,11.193,25,25,25s25-11.193,25-25S38.807,0,25,0S0,11.193,0,25z"/>
<path fill="#FFFFFF" d="M36.164,25.748L20.966,40.906c-0.217,0.217-0.467,0.325-0.75,0.325c-0.282,0-0.532-0.108-0.75-0.325
	l-1.631-1.626c-0.217-0.216-0.326-0.466-0.326-0.748c0-0.282,0.109-0.531,0.326-0.748L30.653,25L17.836,12.216
	c-0.217-0.217-0.326-0.466-0.326-0.748c0-0.282,0.109-0.531,0.326-0.748l1.631-1.626c0.218-0.217,0.468-0.325,0.75-0.325
	c0.283,0,0.533,0.109,0.75,0.325l15.198,15.158c0.218,0.217,0.326,0.467,0.326,0.748C36.491,25.282,36.382,25.532,36.164,25.748z"/>
</svg>
